<?xml version="1.0" encoding="UTF-8" standalone="no"?>
<!DOCTYPE svg PUBLIC "-//W3C//DTD SVG 1.1//EN" "http://www.w3.org/Graphics/SVG/1.1/DTD/svg11.dtd">
<svg width="100%" height="100%" viewBox="0 0 1500 300" version="1.1" xmlns="http://www.w3.org/2000/svg" xmlns:xlink="http://www.w3.org/1999/xlink" xml:space="preserve" xmlns:serif="http://www.serif.com/" style="fill-rule:evenodd;clip-rule:evenodd;stroke-linecap:round;stroke-linejoin:round;stroke-miterlimit:1.5;">
    <g transform="matrix(0.899932,0,0,0.823912,142.956,26.094)">
        <path d="M1490.49,151.526C1490.49,73.453 1432.45,10.068 1360.98,10.068L136.786,10.068C65.308,10.068 7.277,73.453 7.277,151.526C7.277,229.599 65.308,292.984 136.786,292.984L1360.98,292.984C1432.45,292.984 1490.49,229.599 1490.49,151.526Z" style="fill:white;"/>
    </g>
    <g transform="matrix(1,0,0,1,-136.318,65.2085)">
        <text x="478.301px" y="156.96px" style="font-family:'Rajdhani-Regular', 'Rajdhani';font-size:216.667px;">CASUAL FITS</text>
    </g>
    <g transform="matrix(1.13764,0,0,1.23043,-39.8529,-37.9503)">
        <path d="M289.539,150.661C289.539,86.723 233.395,34.813 164.242,34.813C95.089,34.813 38.945,86.723 38.945,150.661L38.945,155.175C38.945,219.113 95.089,271.023 164.242,271.023C233.395,271.023 289.539,219.113 289.539,155.175L289.539,150.661Z" style="fill:rgb(139,207,177);stroke:white;stroke-width:8.79px;"/>
    </g>
    <g id="sweatshirt" transform="matrix(0.582429,0,0,0.607948,143.521,146.726)">
        <g transform="matrix(1,0,0,1,-162,-192)">
            <g>
                <g>
                    <path d="M323.203,296.387L316.355,94.648C315.766,77.297 305.031,61.766 289,55.09L262.613,44.094L241.434,9.086C238.043,3.48 231.867,0 225.316,0L98.684,0C92.133,0 85.957,3.48 82.566,9.086L61.387,44.094L35,55.09C18.973,61.766 8.234,77.297 7.645,94.648L0.797,296.387C0.625,301.492 3.656,306.238 8.348,308.234L7.273,330.809C7.031,335.902 10.004,340.711 14.672,342.77L59.789,362.668L59.789,371.574C59.789,378.426 65.363,384 72.215,384L251.789,384C258.641,384 264.215,378.426 264.215,371.574L264.215,362.668L309.328,342.77C313.996,340.711 316.969,335.906 316.727,330.809L315.652,308.234C320.344,306.234 323.375,301.492 323.203,296.387ZM230.859,14.898C230.953,15.035 231.058,15.168 231.148,15.312L243.82,36.262L241.035,35.102C235.355,32.734 228.867,33.297 223.676,36.598L169.102,71.328C165.281,73.758 160.473,74.035 156.422,72.156L230.859,14.898ZM214.871,12.023L163.879,51.25L109.941,12.023L214.871,12.023ZM92.855,15.312C92.973,15.117 93.109,14.934 93.246,14.75L153.941,58.895L145.527,65.363L100.324,36.598C95.137,33.293 88.645,32.734 82.965,35.102L80.18,36.262L92.855,15.312ZM19.523,331.766C19.375,331.699 19.277,331.547 19.285,331.379L20.156,313.145L47.727,324.598L47.297,339.023C47.254,340.824 47.461,342.59 47.902,344.281L19.523,331.766ZM252.188,358.816L252.188,371.574C252.188,371.793 252.008,371.973 251.789,371.973L72.215,371.973C71.992,371.973 71.812,371.793 71.812,371.574L71.812,358.855L71.812,358.816L71.812,358.348L252.188,358.348L252.188,358.816ZM304.477,331.766L276.094,344.285C276.535,342.586 276.746,340.812 276.699,339L276.273,324.598L303.844,313.145L304.715,331.383C304.723,331.547 304.625,331.699 304.477,331.766ZM310.938,297.18L275.891,311.734L270.625,134.102C270.523,130.781 267.73,128.164 264.434,128.27C261.117,128.367 258.504,131.141 258.605,134.457L264.68,339.332C264.727,341.184 264.039,342.938 262.746,344.262C261.453,345.59 259.719,346.32 257.867,346.32L66.133,346.32C64.281,346.32 62.547,345.59 61.254,344.262C59.961,342.938 59.273,341.184 59.32,339.355L65.398,134.457C65.496,131.141 62.883,128.367 59.566,128.27C56.258,128.164 53.477,130.781 53.379,134.102L48.109,311.734L13.062,297.18C12.91,297.113 12.812,296.961 12.816,296.793L19.664,95.059C20.094,82.395 27.93,71.062 39.625,66.188L87.59,46.203C89.645,45.348 91.992,45.551 93.871,46.742L143.16,78.109L143.16,166.348C143.16,169.668 145.852,172.359 149.172,172.359C152.496,172.359 155.188,169.668 155.188,166.348L155.188,84.469C159.637,85.707 164.363,85.707 168.816,84.469L168.816,166.348C168.816,169.668 171.508,172.359 174.828,172.359C178.148,172.359 180.84,169.668 180.84,166.348L180.84,78.113L230.133,46.742C232.008,45.551 234.355,45.348 236.41,46.203L284.375,66.188C296.07,71.062 303.906,82.395 304.336,95.059L311.184,296.793C311.188,296.961 311.09,297.113 310.938,297.18Z" style="fill:white;fill-rule:nonzero;"/>
                    <path d="M237.703,310.762C237.516,310.449 219.016,279.234 212.848,236.043C212.422,233.082 209.887,230.879 206.895,230.879L117.105,230.879C114.117,230.879 111.578,233.082 111.156,236.043C105.004,279.098 86.48,310.453 86.297,310.762C85.184,312.617 85.152,314.93 86.223,316.816C87.289,318.703 89.285,319.867 91.453,319.867L232.547,319.867C234.715,319.867 236.711,318.703 237.777,316.816C238.848,314.93 238.816,312.617 237.703,310.762ZM101.457,307.84C107.426,295.711 117.344,272.363 122.258,242.906L201.742,242.906C206.656,272.363 216.578,295.711 222.547,307.84L101.457,307.84Z" style="fill:white;fill-rule:nonzero;"/>
                </g>
            </g>
        </g>
    </g>
</svg>
