<?xml version="1.0" encoding="UTF-8" standalone="no"?>
<!DOCTYPE svg PUBLIC "-//W3C//DTD SVG 1.1//EN" "http://www.w3.org/Graphics/SVG/1.1/DTD/svg11.dtd">
<svg width="100%" height="100%" viewBox="0 0 1500 300" version="1.1" xmlns="http://www.w3.org/2000/svg" xmlns:xlink="http://www.w3.org/1999/xlink" xml:space="preserve" xmlns:serif="http://www.serif.com/" style="fill-rule:evenodd;clip-rule:evenodd;stroke-linecap:round;stroke-linejoin:round;stroke-miterlimit:1.5;">
    <g transform="matrix(0.917908,0,0,0.823912,116.163,26.094)">
        <path d="M1490.49,151.526C1490.49,73.453 1433.59,10.068 1363.51,10.068L134.249,10.068C64.171,10.068 7.277,73.453 7.277,151.526C7.277,229.599 64.171,292.984 134.249,292.984L1363.51,292.984C1433.59,292.984 1490.49,229.599 1490.49,151.526Z" style="fill:white;"/>
    </g>
    <g transform="matrix(1,0,0,1,-90.9009,66.7481)">
        <text x="478.301px" y="156.96px" style="font-family:'Rajdhani-Regular', 'Rajdhani';font-size:216.667px;">DRESS FITS</text>
    </g>
    <g transform="matrix(1.13764,0,0,1.23043,-39.8529,-37.9503)">
        <path d="M289.539,150.661C289.539,86.723 233.395,34.813 164.242,34.813C95.089,34.813 38.945,86.723 38.945,150.661L38.945,155.175C38.945,219.113 95.089,271.023 164.242,271.023C233.395,271.023 289.539,219.113 289.539,155.175L289.539,150.661Z" style="fill:rgb(139,207,177);stroke:white;stroke-width:8.79px;"/>
    </g>
    <g id="suit" transform="matrix(0.610019,0,0,0.610019,144.572,160.993)">
        <g transform="matrix(1,0,0,1,-169,-192)">
            <g>
                <g>
                    <path d="M326.523,179.969L310.375,179.969C320.664,156.484 337.777,112.371 337.777,78.703C337.777,74.941 335.898,71.426 332.766,69.34L270.266,27.672L270.266,11.113C270.266,4.965 265.332,0.105 259.184,0.016C239.508,-0.281 201.395,4.121 185.617,22.445L152.383,22.445C136.609,4.121 98.508,-0.285 78.816,0.016C72.668,0.105 67.734,4.969 67.734,11.113L67.734,27.672L5.234,69.34C2.105,71.426 0.223,74.941 0.223,78.703C0.223,112.371 17.336,156.484 27.625,179.969L11.477,179.969C5.262,179.969 0.223,185.008 0.223,191.219C0.223,233.695 51.359,286.258 82.539,315.508C121.988,352.516 160.77,380.684 162.402,381.863C164.242,383.195 166.574,384 168.992,384L169.008,384C171.414,384 173.773,383.184 175.598,381.863C177.23,380.684 216.012,352.516 255.461,315.508C286.512,286.379 337.777,233.746 337.777,191.219C337.777,185.004 332.738,179.969 326.523,179.969ZM193.363,305.938L169,349.637C169,349.637 144.598,305.867 144.578,305.832C110.914,246.918 92.289,180.344 90.406,112.602C111.586,112.395 138.59,109.559 152.781,89.953L185.219,89.953C199.41,109.559 226.414,112.395 247.594,112.602C245.711,180.344 227.086,246.922 193.422,305.832C193.402,305.867 193.383,305.902 193.363,305.938ZM247.762,22.711L247.762,90.062C228.23,89.797 210.305,87.352 202.754,75.727L202.754,36.992C208.574,30.184 227.84,24.203 247.762,22.711ZM157.75,44.945L180.25,44.945L180.25,67.449L157.75,67.449L157.75,44.945ZM135.246,36.992L135.246,75.727C127.695,87.352 109.77,89.797 90.238,90.062L90.238,22.711C110.16,24.203 129.426,30.184 135.246,36.992ZM24.371,202.473L45.23,202.473C49.129,202.473 52.75,200.453 54.801,197.137C56.852,193.82 57.039,189.676 55.297,186.191C54.984,185.566 25.621,126.328 22.926,84.59L67.734,54.719L67.734,101.297C67.75,176.812 87.555,251.375 125.012,316.945L131.73,328.996C121.082,320.059 109.402,309.855 97.777,298.945C56.352,260.059 30.855,226.43 24.371,202.473ZM240.223,298.945C228.598,309.855 216.918,320.062 206.27,328.996L212.988,316.945C250.445,251.375 270.25,176.812 270.266,101.297L270.266,101.281L270.266,54.719L315.074,84.594C312.379,126.328 283.016,185.566 282.707,186.188C280.961,189.676 281.148,193.816 283.199,197.133C285.25,200.453 288.871,202.473 292.77,202.473L313.629,202.473C307.145,226.43 281.648,260.059 240.223,298.945Z" style="fill:white;fill-rule:nonzero;"/>
                    <path d="M180.25,123.707C180.25,129.922 175.215,134.961 169,134.961C162.785,134.961 157.75,129.922 157.75,123.707C157.75,117.496 162.785,112.457 169,112.457C175.215,112.457 180.25,117.496 180.25,123.707Z" style="fill:white;fill-rule:nonzero;"/>
                    <path d="M180.25,168.715C180.25,174.93 175.215,179.969 169,179.969C162.785,179.969 157.75,174.93 157.75,168.715C157.75,162.5 162.785,157.465 169,157.465C175.215,157.465 180.25,162.5 180.25,168.715Z" style="fill:white;fill-rule:nonzero;"/>
                    <path d="M180.25,213.723C180.25,219.938 175.215,224.973 169,224.973C162.785,224.973 157.75,219.938 157.75,213.723C157.75,207.508 162.785,202.473 169,202.473C175.215,202.473 180.25,207.508 180.25,213.723Z" style="fill:white;fill-rule:nonzero;"/>
                    <path d="M180.25,258.731C180.25,264.945 175.215,269.98 169,269.98C162.785,269.98 157.75,264.945 157.75,258.731C157.75,252.516 162.785,247.477 169,247.477C175.215,247.477 180.25,252.516 180.25,258.731Z" style="fill:white;fill-rule:nonzero;"/>
                </g>
            </g>
        </g>
    </g>
</svg>
