<?xml version="1.0" encoding="UTF-8" standalone="no"?>
<!DOCTYPE svg PUBLIC "-//W3C//DTD SVG 1.1//EN" "http://www.w3.org/Graphics/SVG/1.1/DTD/svg11.dtd">
<svg width="100%" height="100%" viewBox="0 0 1500 300" version="1.1" xmlns="http://www.w3.org/2000/svg" xmlns:xlink="http://www.w3.org/1999/xlink" xml:space="preserve" xmlns:serif="http://www.serif.com/" style="fill-rule:evenodd;clip-rule:evenodd;stroke-linecap:round;stroke-linejoin:round;stroke-miterlimit:1.5;">
    <g transform="matrix(0.901096,0,0,0.823912,141.221,26.094)">
        <path d="M1490.49,18.21C1490.49,13.716 1487.15,10.068 1483.04,10.068L14.722,10.068C10.613,10.068 7.277,13.716 7.277,18.21L7.277,284.842C7.277,289.336 10.613,292.984 14.722,292.984L1483.04,292.984C1487.15,292.984 1490.49,289.336 1490.49,284.842L1490.49,18.21Z" style="fill:white;"/>
    </g>
    <g transform="matrix(1,0,0,1,-182.489,42.9393)">
        <text x="478.301px" y="156.96px" style="font-family:'Rajdhani-Regular', 'Rajdhani';font-size:170.833px;">M<tspan x="595.493px 678.005px 721.909px 811.255px 902.139px 993.022px 1073.48px 1167.78px 1262.08px 1354.85px 1444.36px 1481.95px 1562.41px " y="156.96px 156.96px 156.96px 156.96px 156.96px 156.96px 156.96px 156.96px 156.96px 156.96px 156.96px 156.96px 156.96px ">Y ACCESSORIES</tspan></text>
    </g>
    <g transform="matrix(1.13764,0,0,1.23043,-39.8529,-37.9503)">
        <path d="M289.539,150.661C289.539,86.723 233.395,34.813 164.242,34.813C95.089,34.813 38.945,86.723 38.945,150.661L38.945,155.175C38.945,219.113 95.089,271.023 164.242,271.023C233.395,271.023 289.539,219.113 289.539,155.175L289.539,150.661Z" style="fill:rgb(139,207,177);stroke:white;stroke-width:8.79px;"/>
    </g>
    <g id="cap" transform="matrix(0.540745,0,0,0.540745,145.371,134.36)">
        <g transform="matrix(1,0,0,1,-192,-161)">
            <g>
                <g>
                    <path d="M383.895,306.312L374.797,258.648L374.797,206.738C374.797,205.336 374.777,203.941 374.746,202.555L374.719,201.512C374.68,200.125 374.633,198.738 374.559,197.359L374.551,197.211C374.484,195.875 374.398,194.543 374.297,193.211L374.223,192.188C374.113,190.828 373.996,189.473 373.855,188.078L373.824,187.801C373.695,186.535 373.551,185.281 373.391,184.008L373.262,182.973C373.09,181.645 372.906,180.324 372.703,178.992L372.629,178.527C372.445,177.344 372.25,176.16 372.043,174.988L371.848,173.895C371.613,172.605 371.371,171.32 371.113,170.059L370.98,169.414C370.75,168.301 370.508,167.191 370.258,166.094C370.172,165.715 370.086,165.336 370,164.973C369.707,163.723 369.406,162.48 369.09,161.242L368.883,160.457C368.613,159.426 368.336,158.398 368.051,157.375L367.715,156.195C367.371,154.996 367.02,153.801 366.652,152.625C366.594,152.426 366.531,152.23 366.465,152.031L366.355,151.688C366.055,150.73 365.746,149.777 365.402,148.758C365.273,148.371 365.148,147.988 365.02,147.613C364.625,146.457 364.223,145.305 363.805,144.168C363.719,143.93 363.629,143.691 363.539,143.449L363.41,143.113C363.086,142.23 362.75,141.352 362.41,140.48C362.246,140.055 362.082,139.625 361.91,139.199C361.473,138.098 361.023,137 360.562,135.898L360.066,134.738C359.719,133.934 359.367,133.133 359.008,132.324L358.926,132.141C358.754,131.758 358.586,131.379 358.414,131C357.934,129.945 357.445,128.898 356.941,127.848L356.324,126.582C355.961,125.844 355.598,125.105 355.227,124.379L355.109,124.141C354.918,123.762 354.723,123.379 354.535,123.012C354.016,122.008 353.488,121.008 352.945,120.004C352.758,119.652 352.562,119.301 352.367,118.949L352.211,118.664C351.84,117.992 351.465,117.32 351.082,116.645L350.91,116.344C350.703,115.977 350.492,115.605 350.262,115.207L350.164,115.039C350.133,114.98 350.09,114.914 350.047,114.844C344.938,106.078 339.055,97.676 332.559,89.871L332.238,89.492C331.305,88.379 330.363,87.277 329.402,86.184L328.809,85.512C327.922,84.512 327.023,83.52 326.113,82.539L325.461,81.84C324.527,80.844 323.586,79.855 322.629,78.883C320.285,76.484 316.438,76.445 314.039,78.793C311.641,81.137 311.602,84.984 313.949,87.383C314.84,88.293 315.723,89.211 316.602,90.152L317.203,90.797C318.051,91.715 318.891,92.641 319.711,93.566L320.273,94.199C321.172,95.223 322.051,96.25 322.91,97.273L323.219,97.641C329.32,104.969 334.84,112.855 339.629,121.09C339.656,121.141 339.688,121.191 339.723,121.246L339.777,121.344C339.969,121.672 340.156,122.004 340.344,122.336L340.516,122.641C340.875,123.273 341.227,123.906 341.574,124.535L341.734,124.82C341.914,125.145 342.09,125.469 342.262,125.785C342.762,126.707 343.254,127.645 343.742,128.59C343.918,128.93 344.09,129.273 344.262,129.617L344.387,129.867C344.734,130.547 345.074,131.23 345.41,131.918L345.988,133.105C346.453,134.078 346.91,135.055 347.355,136.035C347.516,136.387 347.672,136.738 347.832,137.09L347.91,137.273C348.246,138.023 348.574,138.773 348.898,139.527L349.367,140.617C349.797,141.641 350.215,142.668 350.621,143.695C350.777,144.09 350.934,144.484 351.086,144.883C351.402,145.699 351.715,146.516 352.023,147.344L352.391,148.328C352.777,149.391 353.152,150.461 353.52,151.543C353.641,151.895 353.758,152.246 353.902,152.676C354.195,153.562 354.488,154.453 354.766,155.34L355.043,156.207C355.387,157.32 355.715,158.438 356.035,159.547L356.348,160.648C356.613,161.609 356.875,162.57 357.121,163.516L357.32,164.262C357.613,165.414 357.895,166.574 358.172,167.75C358.25,168.09 358.328,168.434 358.406,168.781C358.641,169.812 358.867,170.848 359.082,171.883L359.207,172.477C359.449,173.668 359.676,174.867 359.895,176.062L360.078,177.082C360.27,178.18 360.453,179.285 360.625,180.391L360.695,180.836C360.883,182.066 361.055,183.305 361.215,184.531L361.34,185.52C361.484,186.691 361.621,187.863 361.742,189.062L361.773,189.34C361.902,190.602 362.012,191.871 362.109,193.145L362.184,194.105C362.273,195.344 362.355,196.59 362.418,197.82C362.418,197.84 362.422,197.902 362.426,197.941L362.426,197.984C362.492,199.27 362.539,200.559 362.574,201.855L362.598,202.828C362.629,204.129 362.648,205.43 362.648,206.738L362.648,241.23C362.551,241.164 362.445,241.102 362.344,241.035C361.977,240.793 361.598,240.551 361.215,240.312C361.004,240.18 360.793,240.047 360.574,239.914C360.16,239.664 359.73,239.414 359.297,239.168C359.094,239.051 358.895,238.934 358.688,238.816C358.203,238.543 357.699,238.273 357.191,238.004C357.023,237.914 356.859,237.824 356.688,237.734C356.059,237.41 355.414,237.086 354.754,236.766C354.691,236.734 354.633,236.703 354.57,236.672C353.066,235.941 351.477,235.23 349.809,234.527C349.805,234.523 349.801,234.523 349.797,234.523C348.988,234.184 348.152,233.844 347.305,233.512C347.172,233.457 347.031,233.406 346.898,233.355C346.172,233.07 345.434,232.789 344.68,232.512C344.484,232.441 344.281,232.367 344.086,232.297C343.375,232.039 342.66,231.785 341.93,231.531C341.699,231.449 341.469,231.371 341.238,231.293C340.516,231.047 339.785,230.805 339.043,230.563C338.801,230.481 338.559,230.406 338.312,230.324C337.559,230.082 336.793,229.844 336.012,229.606C335.773,229.531 335.531,229.457 335.289,229.383C334.48,229.141 333.66,228.899 332.828,228.656C332.605,228.594 332.383,228.528 332.156,228.465C331.262,228.207 330.355,227.957 329.438,227.707C329.266,227.66 329.094,227.613 328.922,227.567C327.879,227.285 326.816,227.008 325.738,226.731C325.684,226.719 325.633,226.703 325.578,226.692C323.656,226.203 321.676,225.723 319.645,225.254L319.645,206.742C319.645,158.324 306.621,112.723 282.969,78.344C274.922,66.648 265.961,56.715 256.316,48.656C257.215,49.02 258.117,49.379 259,49.758C259.027,49.77 259.074,49.789 259.101,49.801L259.23,49.859C260.547,50.426 261.879,51.016 263.176,51.609L263.895,51.949C265.055,52.488 266.211,53.039 267.34,53.594L268.168,54.008C269.305,54.574 270.43,55.156 271.551,55.746L272.266,56.125C273.488,56.777 274.707,57.445 275.914,58.129L276.246,58.316C280.285,60.613 284.289,63.113 288.133,65.734L288.508,65.996C289.637,66.773 290.758,67.562 291.863,68.363L292.48,68.812C293.52,69.57 294.551,70.34 295.582,71.129L296.199,71.605C297.254,72.418 298.297,73.242 299.324,74.074L299.75,74.418C302.34,76.551 306.172,76.18 308.301,73.59C310.434,71 310.062,67.172 307.473,65.039L306.977,64.637C305.871,63.742 304.75,62.859 303.625,61.988L302.957,61.473C301.863,60.637 300.758,59.812 299.625,58.984L298.988,58.523C297.812,57.672 296.602,56.816 295.391,55.984L295,55.715C290.867,52.891 286.578,50.215 282.297,47.781L281.895,47.555C280.605,46.824 279.289,46.102 277.984,45.406L277.219,45C276.02,44.367 274.809,43.746 273.609,43.148L272.719,42.703C271.492,42.102 270.262,41.508 269.012,40.93L268.254,40.574C266.859,39.934 265.438,39.301 263.992,38.68L263.777,38.59C260.672,37.262 257.484,36.004 254.348,34.867L254.004,34.746C252.555,34.223 251.098,33.719 249.664,33.242L248.684,32.926C247.449,32.523 246.207,32.133 244.965,31.758C244.559,31.633 244.152,31.512 243.742,31.395C242.543,31.039 241.336,30.699 240.105,30.363L238.883,30.031C237.621,29.699 236.352,29.383 235.09,29.074L234.762,28.996C234.516,28.934 234.27,28.875 234.035,28.816C232.434,28.441 230.855,28.09 229.359,27.781L229.172,27.738C227.465,27.387 225.742,27.059 224.047,26.758L223.867,26.727C223.836,26.723 223.805,26.715 223.773,26.711C222.27,26.449 220.715,26.195 219.152,25.965C218.867,25.922 218.578,25.883 218.293,25.844L217.801,25.773C217.363,25.711 216.922,25.66 216.48,25.602L216.48,17.598C216.48,8.156 208.805,0.477 199.363,0.477L184.641,0.477C175.203,0.477 167.523,8.156 167.523,17.598L167.523,25.602C167.078,25.66 166.637,25.711 166.195,25.773L165.707,25.844C165.422,25.883 165.133,25.922 164.852,25.961C163.289,26.195 161.734,26.445 160.16,26.723L159.949,26.758C158.262,27.055 156.539,27.383 154.832,27.738L154.664,27.773C153.148,28.09 151.57,28.441 149.98,28.812C149.73,28.871 149.484,28.934 149.238,28.992L148.922,29.074C147.648,29.379 146.379,29.699 145.125,30.031L143.871,30.367C142.664,30.699 141.457,31.039 140.258,31.395C139.852,31.512 139.441,31.633 139.043,31.754C137.793,32.133 136.555,32.523 135.297,32.93L134.332,33.246C132.902,33.719 131.445,34.227 129.934,34.77L129.703,34.848C126.516,36.004 123.328,37.262 120.223,38.59L119.973,38.699C118.566,39.305 117.145,39.938 115.734,40.582L114.98,40.934C113.742,41.512 112.508,42.102 111.266,42.715L110.41,43.141C109.191,43.746 107.984,44.371 106.781,45.004L106.016,45.406C104.715,46.102 103.398,46.824 102.105,47.555L101.746,47.758C97.422,50.219 93.133,52.895 88.984,55.73L88.617,55.984C87.402,56.82 86.188,57.676 85.012,58.527L84.359,59C83.242,59.816 82.141,60.641 81.055,61.469L80.379,61.988C79.25,62.859 78.133,63.742 77.016,64.645L76.551,65.023C72.688,68.172 68.918,71.508 65.305,74.98C65.296,74.992 65.238,75.047 65.23,75.059C64.152,76.094 63.039,77.191 61.895,78.352L61.371,78.891C60.414,79.863 59.473,80.852 58.551,81.836L57.887,82.547C56.977,83.527 56.082,84.52 55.184,85.531L54.594,86.195C53.637,87.285 52.691,88.387 51.746,89.516L51.441,89.875C44.949,97.676 39.07,106.07 33.965,114.828C33.922,114.902 33.875,114.973 33.836,115.047L33.719,115.246C33.508,115.613 33.297,115.98 33.09,116.352L32.914,116.656C32.535,117.328 32.16,118 31.785,118.676L31.633,118.957C31.438,119.309 31.246,119.66 31.047,120.02C30.512,121.016 29.984,122.016 29.473,123.012C29.277,123.387 29.086,123.77 28.891,124.148L28.773,124.379C28.402,125.113 28.039,125.852 27.676,126.59L27.055,127.867C26.555,128.906 26.066,129.953 25.586,131.004C25.414,131.387 25.246,131.766 25.074,132.148L24.988,132.336C24.633,133.137 24.281,133.938 23.938,134.742L23.77,135.133C23.656,135.391 23.543,135.652 23.434,135.918C22.973,137.008 22.527,138.105 22.086,139.211C21.918,139.637 21.754,140.062 21.586,140.488C21.25,141.359 20.914,142.238 20.59,143.113L20.461,143.457C20.371,143.699 20.281,143.938 20.195,144.172C19.777,145.312 19.375,146.465 18.984,147.609C18.852,147.996 18.727,148.379 18.574,148.836C18.254,149.785 17.945,150.742 17.641,151.703L17.535,152.039C17.473,152.238 17.406,152.434 17.352,152.621C16.984,153.809 16.629,155.008 16.285,156.203C16.184,156.562 16.082,156.922 15.98,157.285L15.953,157.379C15.668,158.406 15.387,159.438 15.117,160.469L14.91,161.25C14.594,162.488 14.293,163.73 14,164.98C13.914,165.352 13.828,165.727 13.746,166.094C13.496,167.199 13.254,168.309 13.02,169.426L12.891,170.051C12.629,171.328 12.387,172.613 12.148,173.906L11.957,174.988C11.75,176.168 11.555,177.352 11.371,178.539L11.293,179.016C11.094,180.332 10.91,181.656 10.738,182.977L10.605,184.035C10.449,185.289 10.305,186.543 10.172,187.832L10.137,188.125C10.004,189.477 9.887,190.836 9.777,192.191L9.699,193.223C9.602,194.551 9.516,195.883 9.445,197.215L9.438,197.367C9.367,198.746 9.316,200.133 9.277,201.516L9.254,202.551C9.223,203.949 9.199,205.344 9.199,206.746L9.199,258.656L0.109,306.312C0.035,306.688 0,307.07 0,307.453C0,307.961 0.031,308.465 0.102,309.082C0.121,309.234 0.141,309.383 0.16,309.48C0.227,309.922 0.312,310.352 0.422,310.766C0.449,310.883 0.484,311.02 0.511,311.117C0.664,311.633 0.852,312.133 1.078,312.633C1.137,312.766 1.199,312.898 1.258,313.016C1.453,313.406 1.668,313.789 1.902,314.152C1.969,314.262 2.035,314.367 2.133,314.508C2.438,314.945 2.773,315.371 3.121,315.754C3.211,315.848 3.301,315.941 3.402,316.043C3.691,316.344 4.008,316.637 4.32,316.902C4.422,316.988 4.523,317.074 4.613,317.148C5.023,317.473 5.434,317.766 5.91,318.07C5.98,318.113 6.051,318.152 6.125,318.199C6.473,318.41 6.84,318.613 7.23,318.809L7.555,318.969C8.414,319.375 9.352,319.738 10.375,320.047L10.609,320.117C10.629,320.125 10.715,320.148 10.734,320.156C11.148,320.273 11.57,320.387 11.977,320.48C12.062,320.5 12.152,320.523 12.238,320.539C12.707,320.645 13.199,320.742 13.727,320.836L14.078,320.895C14.5,320.965 14.93,321.027 15.379,321.086L15.699,321.129C16.223,321.191 16.762,321.246 17.277,321.293L17.672,321.324C18.129,321.359 18.59,321.391 19.023,321.414L19.484,321.441C20.039,321.465 20.609,321.488 21.234,321.504L21.492,321.504C21.996,321.516 22.508,321.523 23.035,321.523L23.551,321.52C24.152,321.516 24.758,321.508 25.383,321.496L25.426,321.492L25.547,321.492C26.133,321.477 26.734,321.453 27.363,321.43L27.953,321.406C28.477,321.383 29.008,321.352 29.617,321.32L30.008,321.297C30.652,321.258 31.309,321.215 31.977,321.168C31.984,321.168 32.062,321.16 32.07,321.16L32.699,321.109C33.145,321.078 33.594,321.043 34.047,321.004L34.926,320.93C35.59,320.871 36.262,320.812 36.945,320.746L40.199,320.418C40.832,320.348 41.477,320.277 42.113,320.207L46.809,319.645C47.723,319.531 48.648,319.414 49.594,319.293L52.238,318.945C59.152,318.02 66.73,316.902 74.75,315.719C79.949,314.953 85.371,314.152 90.984,313.352C94.309,312.875 96.613,309.797 96.141,306.477C95.664,303.156 92.59,300.848 89.266,301.324C83.633,302.129 78.195,302.93 72.98,303.699C65,304.879 57.461,305.988 50.629,306.902L48.023,307.246C47.105,307.367 46.199,307.48 45.285,307.594L40.742,308.133C40.121,308.207 39.512,308.273 38.902,308.336L35.797,308.652C35.145,308.715 34.5,308.773 33.871,308.828L33.059,308.895C32.637,308.93 32.223,308.965 31.77,308.996L31.113,309.047C30.488,309.09 29.871,309.133 29.301,309.168L28.879,309.191C28.383,309.219 27.895,309.242 27.395,309.266L26.84,309.289C26.297,309.309 25.758,309.332 25.234,309.344L25.203,309.344L25.086,309.344C24.539,309.359 24.008,309.363 23.457,309.367L23.031,309.367C22.594,309.367 22.16,309.363 21.719,309.355L21.477,309.352C20.988,309.34 20.508,309.324 20.059,309.301L19.699,309.281C19.332,309.262 18.973,309.238 18.691,309.215L18.348,309.188C17.941,309.152 17.551,309.109 17.152,309.062L17.031,309.047C17.02,309.043 16.957,309.035 16.945,309.035C16.637,308.992 16.34,308.949 16.073,308.906L15.809,308.863C15.488,308.805 15.172,308.746 14.871,308.676L14.863,308.676C14.828,308.668 14.793,308.656 14.773,308.656C14.523,308.598 14.285,308.531 14.043,308.461L13.891,308.418C13.465,308.289 13.09,308.145 12.836,308.027L12.676,307.945C12.578,307.895 12.484,307.844 12.383,307.785L12.324,307.75C12.293,307.727 12.266,307.707 12.234,307.684C12.227,307.68 12.223,307.672 12.215,307.668L21.223,260.453C21.223,260.445 21.227,260.438 21.227,260.43L21.238,260.359C21.258,260.273 21.262,260.188 21.277,260.105C21.293,260.004 21.309,259.91 21.316,259.812C21.336,259.613 21.348,259.418 21.348,259.219C21.348,254.852 31.254,245.211 68.379,236.785C71.188,236.148 74.078,235.539 77.039,234.949C104.637,229.481 138.797,226.156 175.18,225.371C175.355,225.367 175.535,225.363 175.715,225.36C176.906,225.336 178.102,225.313 179.297,225.293C179.734,225.285 180.168,225.281 180.605,225.274C181.562,225.262 182.523,225.246 183.484,225.235C184.227,225.227 184.977,225.223 185.723,225.215C186.383,225.211 187.047,225.203 187.707,225.199C188.488,225.195 189.27,225.195 190.051,225.192C190.699,225.192 191.348,225.188 192,225.188C193.422,225.188 194.84,225.192 196.258,225.199C197.293,225.203 198.324,225.215 199.355,225.223C199.723,225.227 200.086,225.231 200.453,225.235C201.785,225.246 203.117,225.266 204.445,225.285C204.496,225.289 204.551,225.289 204.602,225.289C244.945,225.942 282.793,229.703 312.289,236.051C312.293,236.051 312.301,236.051 312.309,236.055C313.422,236.293 314.523,236.535 315.613,236.781C352.738,245.207 362.645,254.848 362.645,259.219C362.645,259.414 362.652,259.609 362.672,259.809C362.684,259.906 362.703,260.004 362.715,260.102C362.727,260.188 362.734,260.27 362.75,260.355L362.766,260.426C362.766,260.434 362.766,260.441 362.77,260.449L371.777,307.664L371.754,307.684C371.727,307.703 371.703,307.723 371.688,307.734C371.652,307.754 371.621,307.773 371.598,307.785C371.508,307.84 371.414,307.891 371.328,307.934L371.211,307.992C370.898,308.141 370.527,308.281 370.121,308.406L369.934,308.461C369.703,308.527 369.465,308.59 369.219,308.648C369.199,308.652 369.16,308.664 369.125,308.672L369.117,308.672C368.816,308.738 368.5,308.801 368.207,308.855L367.941,308.898C367.652,308.945 367.352,308.988 367.047,309.031C367.035,309.031 366.969,309.039 366.957,309.043L366.824,309.059C366.441,309.105 366.047,309.148 365.641,309.184C365.629,309.184 365.559,309.188 365.547,309.191L365.367,309.203C365.016,309.23 364.656,309.258 364.211,309.281L363.945,309.297C363.48,309.32 363.004,309.34 362.551,309.348L362.25,309.352C361.828,309.359 361.398,309.363 360.957,309.363L360.508,309.363C359.984,309.359 359.449,309.355 358.902,309.34L358.746,309.34C358.223,309.324 357.688,309.305 357.121,309.281L356.574,309.258C356.094,309.238 355.605,309.211 355.18,309.188L354.723,309.164C354.117,309.125 353.5,309.086 352.82,309.035L352.184,308.988C351.77,308.957 351.352,308.922 350.93,308.887L350.125,308.82C349.492,308.766 348.848,308.707 348.195,308.645L345.086,308.328C344.48,308.266 343.867,308.199 343.234,308.125L338.684,307.586C337.789,307.473 336.883,307.359 335.977,307.242L333.363,306.898C326.516,305.98 318.965,304.867 310.969,303.688C300.902,302.203 289.488,300.52 277.566,298.961L255.129,296.281L254.539,296.215C252.527,296.004 250.496,295.801 248.453,295.598L246.68,295.426C244.66,295.234 242.629,295.051 240.578,294.871L238.801,294.719C236.699,294.539 234.594,294.371 232.469,294.211L231.059,294.113C228.977,293.961 226.887,293.82 224.797,293.688L223.957,293.633C221.688,293.496 219.402,293.375 217.094,293.262L215.703,293.191C213.461,293.09 211.203,293 208.938,292.922L207.48,292.875C205.172,292.801 202.855,292.742 200.535,292.703L199.434,292.688C196.676,292.641 194.25,292.621 191.961,292.621C189.738,292.621 187.316,292.641 184.566,292.688L183.453,292.703C181.133,292.742 178.816,292.801 176.5,292.875L175.047,292.922C172.785,293 170.531,293.09 168.277,293.195L166.875,293.262C164.586,293.375 162.305,293.496 160.02,293.637L159.203,293.688C157.102,293.82 155.016,293.961 152.938,294.113L151.52,294.211C149.398,294.371 147.289,294.539 145.199,294.719L143.402,294.871C141.359,295.051 139.328,295.23 137.305,295.426L135.531,295.598C133.492,295.797 131.461,296.004 129.422,296.219L109,298.652C105.668,299.047 103.289,302.074 103.688,305.402C104.082,308.734 107.113,311.109 110.438,310.715L130.19,308.355L130.723,308.297C132.707,308.09 134.703,307.887 136.707,307.691L138.469,307.52C140.453,307.328 142.453,307.148 144.453,306.973L146.215,306.824C148.277,306.648 150.348,306.484 152.43,306.324L153.809,306.227C155.852,306.078 157.898,305.941 159.965,305.812L160.77,305.758C162.992,305.625 165.23,305.508 167.52,305.395L168.848,305.328C171.043,305.227 173.25,305.137 175.453,305.062L176.891,305.016C179.141,304.945 181.398,304.887 183.664,304.848L184.75,304.832C187.445,304.789 189.805,304.77 192.031,304.77C194.191,304.77 196.551,304.789 199.266,304.832L200.328,304.848C202.594,304.887 204.852,304.945 207.094,305.016L208.535,305.062C210.746,305.137 212.949,305.227 215.137,305.328L216.523,305.398C218.766,305.508 221,305.625 223.207,305.758L224.035,305.812C226.094,305.941 228.145,306.078 230.191,306.227L231.562,306.324C233.648,306.484 235.719,306.648 237.789,306.824L239.535,306.973C241.543,307.148 243.539,307.328 245.523,307.52L247.281,307.691C249.289,307.887 251.289,308.09 253.246,308.293L276.066,311.012C287.82,312.551 299.18,314.227 309.203,315.703C317.238,316.891 324.832,318.012 331.762,318.938L334.414,319.285C335.352,319.406 336.277,319.523 337.168,319.637L341.871,320.195C342.52,320.27 343.164,320.34 343.797,320.406L347.051,320.738C347.734,320.801 348.406,320.863 349.074,320.922L349.949,320.996C350.406,321.035 350.852,321.07 351.258,321.098L351.926,321.152C351.934,321.152 352.012,321.156 352.02,321.156C352.684,321.207 353.344,321.25 354.023,321.289L354.449,321.312C354.988,321.344 355.52,321.371 356.02,321.395L356.652,321.422C357.262,321.445 357.859,321.469 358.449,321.484C358.5,321.48 358.547,321.484 358.613,321.484C359.238,321.5 359.844,321.508 360.418,321.512L360.961,321.512C361.488,321.512 362,321.508 362.484,321.496L362.801,321.492C363.387,321.48 363.957,321.457 364.531,321.43L364.934,321.406C365.406,321.383 365.871,321.352 366.324,321.316C366.348,321.312 366.434,321.309 366.457,321.305L366.68,321.285C367.238,321.238 367.777,321.184 368.285,321.121L368.625,321.078C369.07,321.02 369.496,320.957 369.945,320.883L370.301,320.824C370.801,320.734 371.285,320.637 371.75,320.531C371.844,320.516 371.926,320.496 371.984,320.48C372.426,320.375 372.852,320.262 373.266,320.145C373.285,320.141 373.371,320.113 373.391,320.109L373.645,320.031C374.645,319.727 375.586,319.367 376.5,318.93L376.777,318.793C377.164,318.598 377.535,318.395 377.879,318.184C377.961,318.137 378.07,318.07 378.137,318.031C378.566,317.758 378.988,317.453 379.371,317.148C379.473,317.066 379.574,316.98 379.656,316.91C380.008,316.613 380.336,316.305 380.59,316.043C380.688,315.945 380.781,315.844 380.859,315.758C381.223,315.359 381.559,314.938 381.887,314.465C381.961,314.359 382.027,314.254 382.098,314.141C382.332,313.773 382.547,313.391 382.73,313.02C382.797,312.891 382.859,312.758 382.914,312.641C383.145,312.125 383.332,311.621 383.508,311.031C383.531,310.938 383.559,310.844 383.578,310.746C383.684,310.344 383.77,309.926 383.84,309.453C383.859,309.328 383.879,309.199 383.898,309.027C383.965,308.453 383.996,307.949 383.996,307.441C384,307.07 383.965,306.688 383.895,306.312ZM184.637,12.621L199.363,12.621C202.102,12.621 204.328,14.852 204.328,17.59L204.328,24.363C203.789,24.324 203.25,24.301 202.711,24.27C202.559,24.258 202.402,24.246 202.25,24.238C202.215,24.238 202.176,24.238 202.141,24.234C200.555,24.148 198.969,24.082 197.383,24.031C197.297,24.031 197.215,24.023 197.129,24.023C196.586,24.008 196.066,23.996 195.559,23.988C195.27,23.98 194.98,23.977 194.695,23.969C193.758,23.957 192.859,23.949 191.996,23.949L191.992,23.949C191.141,23.949 190.258,23.957 189.328,23.969C189.012,23.977 188.695,23.98 188.379,23.988C187.887,23.996 187.383,24.008 186.859,24.023C186.789,24.027 186.715,24.031 186.645,24.031C185.016,24.082 183.387,24.148 181.758,24.238L181.75,24.238C181.738,24.238 181.727,24.242 181.719,24.242C181.035,24.281 180.355,24.316 179.672,24.363L179.672,17.59C179.672,14.852 181.898,12.621 184.637,12.621ZM64.355,206.738L64.355,225.246C62.324,225.719 60.344,226.195 58.426,226.684C58.371,226.699 58.316,226.715 58.262,226.727C57.184,227.004 56.121,227.281 55.078,227.563C54.906,227.61 54.738,227.656 54.566,227.703C53.645,227.953 52.738,228.203 51.844,228.457C51.621,228.524 51.398,228.586 51.176,228.653C50.344,228.895 49.52,229.133 48.715,229.379C48.473,229.453 48.23,229.524 47.992,229.598C47.211,229.84 46.441,230.078 45.688,230.32C45.445,230.399 45.203,230.477 44.965,230.555C44.219,230.801 43.484,231.043 42.762,231.293C42.535,231.371 42.305,231.445 42.078,231.527C41.344,231.781 40.625,232.035 39.914,232.297C39.719,232.367 39.52,232.438 39.328,232.508C38.57,232.789 37.832,233.07 37.102,233.352C36.973,233.402 36.836,233.453 36.703,233.508C34.098,234.531 31.672,235.586 29.434,236.668C29.375,236.699 29.316,236.727 29.254,236.758C28.594,237.078 27.945,237.402 27.316,237.73C27.145,237.82 26.984,237.91 26.816,237.996C26.305,238.27 25.805,238.539 25.316,238.812C25.109,238.926 24.91,239.043 24.703,239.16C24.273,239.41 23.844,239.66 23.43,239.91C23.211,240.043 23,240.176 22.785,240.309C22.402,240.547 22.027,240.789 21.66,241.027C21.559,241.094 21.449,241.16 21.352,241.227L21.352,206.738C21.352,205.43 21.371,204.125 21.402,202.812L21.426,201.848C21.465,200.555 21.508,199.266 21.574,197.98C21.574,197.969 21.578,197.957 21.578,197.941C21.578,197.91 21.582,197.855 21.582,197.836C21.648,196.59 21.73,195.344 21.82,194.105L21.891,193.141C21.992,191.871 22.102,190.602 22.227,189.379L22.262,189.043C22.383,187.867 22.52,186.691 22.664,185.535L22.789,184.535C22.949,183.297 23.121,182.062 23.305,180.848L23.379,180.391C23.551,179.285 23.734,178.18 23.93,177.07L24.105,176.066C24.328,174.863 24.555,173.664 24.797,172.457L24.922,171.883C25.137,170.844 25.363,169.812 25.598,168.773L25.836,167.734C26.109,166.574 26.391,165.414 26.684,164.262L26.879,163.527C27.129,162.566 27.387,161.605 27.656,160.645L27.688,160.543C27.777,160.215 27.871,159.887 27.965,159.555C28.285,158.434 28.617,157.316 28.965,156.191L29.234,155.344C29.52,154.453 29.805,153.562 30.129,152.598C30.246,152.246 30.363,151.895 30.484,151.535C30.852,150.461 31.227,149.391 31.617,148.32L31.984,147.336C32.289,146.516 32.602,145.699 32.918,144.883C33.07,144.484 33.223,144.09 33.383,143.695C33.789,142.664 34.211,141.641 34.637,140.625L35.105,139.527C35.43,138.777 35.758,138.027 36.09,137.281L36.172,137.094C36.328,136.742 36.488,136.387 36.648,136.039C37.094,135.055 37.551,134.078 38.012,133.117L38.594,131.922C38.93,131.234 39.27,130.551 39.617,129.863L39.742,129.617C39.914,129.277 40.086,128.934 40.27,128.582C40.754,127.648 41.242,126.711 41.738,125.797C41.914,125.473 42.094,125.148 42.27,124.828L42.426,124.543C42.777,123.91 43.129,123.273 43.484,122.652L43.66,122.34C43.848,122.008 44.035,121.676 44.227,121.348L44.273,121.27C44.309,121.211 44.344,121.152 44.379,121.094C49.164,112.859 54.688,104.969 60.789,97.637L61.082,97.293C61.953,96.25 62.836,95.223 63.727,94.207L64.285,93.578C65.113,92.645 65.953,91.715 66.801,90.797L67.414,90.145C68.285,89.215 69.164,88.293 70.039,87.398L70.562,86.863C71.617,85.797 72.656,84.77 73.605,83.855L73.77,83.695C77.105,80.492 80.625,77.375 84.254,74.414L84.676,74.074C85.707,73.238 86.75,72.414 87.805,71.598L88.434,71.117C89.453,70.336 90.484,69.566 91.504,68.82L92.137,68.359C93.246,67.559 94.367,66.77 95.5,65.988L95.855,65.742C99.715,63.105 103.719,60.605 107.797,58.285L108.09,58.125C109.297,57.441 110.516,56.773 111.738,56.117L112.453,55.742C113.574,55.152 114.699,54.57 115.852,53.996L116.645,53.598C117.793,53.035 118.945,52.484 120.098,51.949L120.816,51.613C122.125,51.012 123.457,50.418 124.777,49.852L124.93,49.785C124.953,49.773 124.98,49.766 125.004,49.754C125.883,49.379 126.777,49.023 127.668,48.66C118.027,56.719 109.074,66.645 101.031,78.336C77.379,112.715 64.355,158.316 64.355,206.738ZM307.496,222.676C280.285,217.422 247.246,214.184 211.941,213.297C211.832,213.293 211.723,213.289 211.613,213.289C210.48,213.258 209.344,213.234 208.207,213.211C207.895,213.203 207.582,213.199 207.27,213.191C206.281,213.172 205.293,213.156 204.301,213.141C203.809,213.133 203.309,213.125 202.812,213.117C201.973,213.109 201.133,213.098 200.289,213.086C199.566,213.078 198.844,213.074 198.121,213.07C197.762,213.066 197.398,213.062 197.039,213.059C196.844,213.059 196.652,213.055 196.457,213.055L196.18,213.055C194.816,213.047 193.453,213.043 192.086,213.043L192,213.043L191.996,213.043L191.992,213.043C190.586,213.043 189.18,213.047 187.773,213.055C187.23,213.059 186.688,213.062 186.145,213.066C185.305,213.074 184.461,213.078 183.625,213.09C182.906,213.094 182.188,213.105 181.473,213.113C180.832,213.125 180.195,213.133 179.559,213.141C178.703,213.156 177.848,213.172 176.996,213.188C176.531,213.195 176.062,213.203 175.598,213.215C174.613,213.234 173.629,213.258 172.648,213.281C172.355,213.289 172.062,213.297 171.77,213.305C170.633,213.332 169.5,213.363 168.367,213.398C168.309,213.398 168.254,213.398 168.195,213.402C134.359,214.422 102.742,217.613 76.527,222.672C76.52,222.676 76.512,222.676 76.508,222.676L76.508,206.738C76.508,112.996 127.934,36.676 191.297,36.113C191.781,36.109 192.266,36.113 192.75,36.113C256.09,36.719 307.496,113.023 307.496,206.738L307.496,222.676Z" style="fill:white;fill-rule:nonzero;"/>
                    <path d="M192,107.219C171.5,107.219 154.824,123.895 154.824,144.395C154.824,164.895 171.5,181.57 192,181.57C212.5,181.57 229.18,164.895 229.18,144.395C229.18,123.895 212.5,107.219 192,107.219ZM192,169.422C178.199,169.422 166.973,158.195 166.973,144.395C166.973,130.594 178.199,119.367 192,119.367C205.801,119.367 217.027,130.594 217.027,144.395C217.027,158.195 205.801,169.422 192,169.422Z" style="fill:white;fill-rule:nonzero;"/>
                </g>
            </g>
        </g>
    </g>
</svg>
