<?xml version="1.0" encoding="UTF-8" standalone="no"?>
<!DOCTYPE svg PUBLIC "-//W3C//DTD SVG 1.1//EN" "http://www.w3.org/Graphics/SVG/1.1/DTD/svg11.dtd">
<svg width="100%" height="100%" viewBox="0 0 1500 1725" version="1.1" xmlns="http://www.w3.org/2000/svg" xmlns:xlink="http://www.w3.org/1999/xlink" xml:space="preserve" xmlns:serif="http://www.serif.com/" style="fill-rule:evenodd;clip-rule:evenodd;stroke-linejoin:round;stroke-miterlimit:2;">
    <g transform="matrix(0.987733,0,0,5.95516,8.73892,-42.4418)">
        <path d="M1490.49,17.148C1490.49,13.24 1471.36,10.068 1447.8,10.068L49.964,10.068C26.404,10.068 7.277,13.24 7.277,17.148L7.277,285.904C7.277,289.812 26.404,292.984 49.964,292.984L1447.8,292.984C1471.36,292.984 1490.49,289.812 1490.49,285.904L1490.49,17.148Z" style="fill:white;"/>
    </g>
    <g transform="matrix(0.868497,0,0,4.62502,100.177,267.685)">
        <path d="M1490.49,18.084C1490.49,13.66 1471.36,10.068 1447.8,10.068L49.964,10.068C26.404,10.068 7.277,13.66 7.277,18.084L7.277,284.968C7.277,289.392 26.404,292.984 49.964,292.984L1447.8,292.984C1471.36,292.984 1490.49,289.392 1490.49,284.968L1490.49,18.084Z" style="fill:rgb(139,207,177);"/>
    </g>
    <g transform="matrix(1.05013,0,0,1.03341,-391.893,100.692)">
        <text x="478.301px" y="156.96px" style="font-family:'Rajdhani-Regular', 'Rajdhani';font-size:212.5px;">ADD CLOTHING</text>
    </g>
    <g id="hanger" transform="matrix(3.09689,0,0,3.04757,747.723,1146.8)">
        <g transform="matrix(1,0,0,1,-192,-119)">
            <g>
                <clipPath id="_clip1">
                    <rect x="0" y="0" width="384" height="238"/>
                </clipPath>
                <g clip-path="url(#_clip1)">
                    <path d="M372.609,198.324L260.015,140.797C254.5,137.602 242.539,127.059 236.117,109.605C230.09,93.227 216.09,82.801 198.055,80.906C199.418,72.004 204.137,63.93 211.277,58.641C219.895,52.258 224.797,42.043 224.391,31.324C223.75,14.504 210.074,0.828 193.258,0.191C184.344,-0.172 175.926,3.062 169.523,9.227C163.117,15.395 159.586,23.688 159.586,32.578C159.586,35.691 162.109,38.215 165.223,38.215C168.336,38.215 170.859,35.691 170.859,32.578C170.859,26.781 173.16,21.371 177.34,17.348C181.516,13.328 187.023,11.238 192.828,11.453C203.793,11.871 212.711,20.785 213.125,31.75C213.391,38.75 210.191,45.414 204.566,49.582C194.594,56.973 188.137,68.383 186.68,80.836C168.289,82.523 153.992,93.008 147.883,109.605C141.461,127.059 129.5,137.602 123.984,140.797L63.641,171.629C60.867,173.043 59.77,176.438 61.184,179.211C62.598,181.984 65.996,183.082 68.766,181.664L129.19,150.793C129.382,150.699 148.684,140.074 158.461,113.5C163.523,99.75 175.746,91.863 192,91.863C208.254,91.863 220.477,99.75 225.535,113.5C235.246,139.883 254.438,150.594 254.629,150.699C254.676,150.723 254.719,150.75 254.766,150.773L367.48,208.359C372.211,210.777 374.09,216.59 371.676,221.316C369.258,226.047 363.449,227.93 358.719,225.512L277.824,184.18C275.051,182.766 271.656,183.863 270.238,186.637C268.824,189.41 269.922,192.805 272.695,194.219L317.824,217.277L66.172,217.277L151.582,173.645C176.891,160.711 207.113,160.711 232.422,173.645L252.605,183.957C255.379,185.375 258.773,184.274 260.191,181.5C261.605,178.73 260.508,175.336 257.734,173.918L237.551,163.605C209.027,149.031 174.973,149.031 146.453,163.605L25.281,225.512C20.555,227.926 14.742,226.047 12.324,221.32C9.91,216.59 11.789,210.777 16.52,208.363L48.629,191.957C51.402,190.539 52.5,187.145 51.082,184.375C49.668,181.602 46.27,180.5 43.5,181.918L11.391,198.324C1.125,203.566 -2.957,216.184 2.285,226.445C4.828,231.418 9.152,235.105 14.465,236.824C19.719,238.523 25.492,238.062 30.41,235.551L44.109,228.551L339.891,228.551L353.59,235.551C356.629,237.102 359.871,237.836 363.066,237.836C370.676,237.836 378.023,233.672 381.715,226.445C386.957,216.184 382.875,203.566 372.609,198.324Z" style="fill:white;fill-rule:nonzero;"/>
                </g>
            </g>
        </g>
    </g>
    <g id="plus" transform="matrix(0.830023,0,0,0.816806,740.773,556.878)">
        <g transform="matrix(1,0,0,1,-192,-192)">
            <g>
                <path d="M192,0C86.125,0 0,86.125 0,192C0,297.875 86.125,384 192,384C297.875,384 384,297.859 384,192C384,86.141 297.875,0 192,0ZM192,354.254C102.543,354.254 29.746,281.473 29.746,192C29.746,102.527 102.543,29.746 192,29.746C281.457,29.746 354.254,102.527 354.254,192C354.254,281.473 281.473,354.254 192,354.254Z" style="fill:white;fill-rule:nonzero;"/>
                <path d="M266.359,175.789L206.871,175.789L206.871,116.301C206.871,108.09 200.223,101.43 192,101.43C183.777,101.43 177.129,108.09 177.129,116.301L177.129,175.789L117.641,175.789C109.414,175.789 102.766,182.453 102.766,190.66C102.766,198.871 109.414,205.535 117.641,205.535L177.129,205.535L177.129,265.023C177.129,273.234 183.777,279.895 192,279.895C200.223,279.895 206.871,273.234 206.871,265.023L206.871,205.535L266.359,205.535C274.586,205.535 281.234,198.871 281.234,190.66C281.234,182.453 274.586,175.789 266.359,175.789Z" style="fill:white;fill-rule:nonzero;"/>
            </g>
        </g>
    </g>
</svg>
