<?xml version="1.0" encoding="UTF-8" standalone="no"?>
<!DOCTYPE svg PUBLIC "-//W3C//DTD SVG 1.1//EN" "http://www.w3.org/Graphics/SVG/1.1/DTD/svg11.dtd">
<svg width="100%" height="100%" viewBox="0 0 1500 300" version="1.1" xmlns="http://www.w3.org/2000/svg" xmlns:xlink="http://www.w3.org/1999/xlink" xml:space="preserve" xmlns:serif="http://www.serif.com/" style="fill-rule:evenodd;clip-rule:evenodd;stroke-linecap:round;stroke-linejoin:round;stroke-miterlimit:1.5;">
    <g transform="matrix(0.901096,0,0,0.823912,141.221,26.094)">
        <path d="M1490.49,151.526C1490.49,73.453 1432.53,10.068 1361.14,10.068L136.618,10.068C65.233,10.068 7.277,73.453 7.277,151.526C7.277,229.599 65.233,292.984 136.618,292.984L1361.14,292.984C1432.53,292.984 1490.49,229.599 1490.49,151.526Z" style="fill:white;"/>
    </g>
    <g transform="matrix(1,0,0,1,-110.083,55.6926)">
        <text x="478.301px" y="156.96px" style="font-family:'Rajdhani-Regular', 'Rajdhani';font-size:195.833px;">MY BOTTOMS</text>
    </g>
    <g transform="matrix(1.13764,0,0,1.23043,-39.8529,-37.9503)">
        <path d="M289.539,150.661C289.539,86.723 233.395,34.813 164.242,34.813C95.089,34.813 38.945,86.723 38.945,150.661L38.945,155.175C38.945,219.113 95.089,271.023 164.242,271.023C233.395,271.023 289.539,219.113 289.539,155.175L289.539,150.661Z" style="fill:rgb(139,207,177);stroke:white;stroke-width:8.79px;"/>
    </g>
    <g id="pants" transform="matrix(0.626331,0,0,0.626331,154.864,152.207)">
        <g transform="matrix(1,0,0,1,-140.5,-192)">
            <g>
                <g>
                    <path d="M156.559,63.969L63.645,63.969C61.973,63.949 60.355,64.605 59.172,65.789C57.984,66.969 57.328,68.582 57.344,70.258L57.344,147.871C57.328,150.117 58.496,152.207 60.414,153.363L106.848,181.074C108.859,182.277 111.371,182.277 113.383,181.074L159.805,153.363C161.734,152.207 162.906,150.121 162.891,147.871L162.891,70.258C162.902,68.578 162.234,66.965 161.047,65.785C159.852,64.602 158.238,63.949 156.559,63.969ZM150.098,144.238L110.117,168.137L70.141,144.238L70.141,76.766L150.098,76.766L150.098,144.238Z" style="fill:white;fill-rule:nonzero;"/>
                    <path d="M279.711,158.668C278.512,156.93 276.531,155.902 274.418,155.922L194.875,155.922L194.875,6.145C194.938,4.508 194.316,2.918 193.164,1.754C192.012,0.59 190.426,-0.043 188.789,0.004L43.824,0.004C42.148,-0.055 40.516,0.559 39.301,1.715C38.082,2.871 37.383,4.465 37.355,6.145L37.355,39.094L0.676,124.762C0.18,125.934 0.043,127.227 0.289,128.477L47.871,378.734C48.461,381.727 51.113,383.867 54.164,383.805L188.754,383.805C188.766,383.805 188.777,383.938 188.789,383.938C188.801,383.938 188.828,383.996 188.852,383.996C189.109,384.004 189.367,383.996 189.629,383.973C189.699,383.961 189.77,383.965 189.844,383.953C190.113,383.914 190.375,383.855 190.633,383.785L190.652,383.785C190.926,383.699 191.191,383.598 191.453,383.477C191.5,383.453 191.547,383.434 191.598,383.406C191.844,383.289 192.078,383.152 192.305,383.008C192.316,382.996 192.332,382.992 192.344,382.98C192.57,382.828 192.789,382.66 192.992,382.48C193.051,382.43 193.105,382.375 193.164,382.324C193.363,382.137 193.547,381.941 193.723,381.734C193.746,381.711 193.762,381.684 193.785,381.656C193.945,381.453 194.094,381.238 194.227,381.016C194.262,380.961 194.293,380.91 194.324,380.855C194.477,380.602 194.602,380.336 194.715,380.066C194.719,380.051 194.727,380.043 194.73,380.031L280.363,164.59C281.145,162.633 280.902,160.41 279.711,158.668ZM182.082,12.797L182.082,32.785L50.148,32.785L50.148,12.797L182.082,12.797ZM13.238,127.852L48.539,45.578L182.082,45.578L182.082,371.012L59.461,371.012L13.238,127.852ZM194.875,344.25L194.875,168.715L264.992,168.715L194.875,344.25Z" style="fill:white;fill-rule:nonzero;"/>
                </g>
            </g>
        </g>
    </g>
</svg>
