<?xml version="1.0" encoding="UTF-8" standalone="no"?>
<!DOCTYPE svg PUBLIC "-//W3C//DTD SVG 1.1//EN" "http://www.w3.org/Graphics/SVG/1.1/DTD/svg11.dtd">
<svg width="100%" height="100%" viewBox="0 0 1500 300" version="1.1" xmlns="http://www.w3.org/2000/svg" xmlns:xlink="http://www.w3.org/1999/xlink" xml:space="preserve" xmlns:serif="http://www.serif.com/" style="fill-rule:evenodd;clip-rule:evenodd;stroke-linecap:round;stroke-linejoin:round;stroke-miterlimit:1.5;">
    <g transform="matrix(0.901096,0,0,0.823912,141.221,26.094)">
        <path d="M1490.49,18.21C1490.49,13.716 1487.15,10.068 1483.04,10.068L14.722,10.068C10.613,10.068 7.277,13.716 7.277,18.21L7.277,284.842C7.277,289.336 10.613,292.984 14.722,292.984L1483.04,292.984C1487.15,292.984 1490.49,289.336 1490.49,284.842L1490.49,18.21Z" style="fill:white;"/>
    </g>
    <g transform="matrix(1,0,0,1,-67.2279,67.3005)">
        <text x="478.301px" y="156.96px" style="font-family:'Rajdhani-Regular', 'Rajdhani';font-size:216.667px;">MY SHOES</text>
    </g>
    <g transform="matrix(1.13764,0,0,1.23043,-39.8529,-37.9503)">
        <path d="M289.539,150.661C289.539,86.723 233.395,34.813 164.242,34.813C95.089,34.813 38.945,86.723 38.945,150.661L38.945,155.175C38.945,219.113 95.089,271.023 164.242,271.023C233.395,271.023 289.539,219.113 289.539,155.175L289.539,150.661Z" style="fill:rgb(139,207,177);stroke:white;stroke-width:8.79px;"/>
    </g>
    <g id="sneaker" transform="matrix(0.6151,0,0,0.6151,149.709,140.009)">
        <g transform="matrix(1,0,0,1,-192,-87)">
            <g>
                <clipPath id="_clip1">
                    <rect x="0" y="0" width="384" height="174"/>
                </clipPath>
                <g clip-path="url(#_clip1)">
                    <path d="M383.852,112.035C383.109,105.07 379.699,98.812 374.25,94.41C373.941,94.16 373.625,93.918 373.305,93.684C373.133,93.555 372.957,93.438 372.781,93.312C372.645,93.215 372.508,93.121 372.367,93.027C372.121,92.859 371.867,92.699 371.617,92.543C371.562,92.512 371.512,92.477 371.461,92.445C367.43,89.965 362.84,88.641 358.094,88.59C357.992,88.59 357.887,88.586 357.785,88.586L357.746,88.586C357.27,88.586 356.785,88.598 356.305,88.625C356.246,88.629 356.184,88.637 356.125,88.641C355.75,88.664 355.375,88.691 355,88.73C354.984,88.734 354.965,88.734 354.949,88.738C354.699,88.766 354.449,88.805 354.199,88.836C353.996,88.867 353.793,88.891 353.59,88.922C353.336,88.965 353.082,89.012 352.832,89.059C352.629,89.098 352.43,89.137 352.227,89.18C351.992,89.23 351.758,89.285 351.523,89.344C351.301,89.398 351.078,89.453 350.859,89.512C350.648,89.57 350.441,89.629 350.234,89.691C350.02,89.754 349.809,89.82 349.594,89.891L276.246,68.852C273.68,67.434 264.48,62.359 252.098,55.57L253.492,53.25C255.203,50.395 254.277,46.691 251.422,44.98C248.566,43.266 244.863,44.191 243.148,47.047L241.512,49.773C239,48.398 236.418,46.984 233.777,45.543L235.082,43.367C236.797,40.512 235.871,36.809 233.016,35.094C230.16,33.379 226.457,34.305 224.742,37.16L223.18,39.766C220.613,38.371 218.027,36.965 215.434,35.559L216.68,33.48C218.395,30.625 217.469,26.922 214.609,25.211C211.758,23.496 208.051,24.422 206.34,27.277L204.82,29.809C202.211,28.398 199.617,26.996 197.059,25.621L198.273,23.598C199.984,20.742 199.059,17.035 196.203,15.324C193.348,13.609 189.645,14.535 187.93,17.391L186.422,19.91C183.742,18.48 181.141,17.098 178.633,15.766L179.863,13.711C181.578,10.855 180.652,7.152 177.797,5.438C174.941,3.723 171.238,4.652 169.523,7.508L167.945,10.137C162.684,7.395 158.199,5.102 154.844,3.461C144.418,-1.637 137.496,0.469 133.527,3.129C124.59,9.117 122.918,23.027 122.715,30.785C119.812,31.664 116.949,32.996 114.238,34.953C113.32,35.617 112.305,36.371 111.199,37.191C95.543,48.832 66.406,70.496 39.148,40.566C39.094,40.508 39.039,40.445 38.98,40.391C37.504,38.891 24.184,25.891 12.344,30.75C4.034,34.156 0,44.43 0,62.148L0,147.199C0,161.656 11.766,173.422 26.223,173.422L60.703,173.422C64.035,173.422 66.734,170.723 66.734,167.391C66.734,164.059 64.035,161.363 60.703,161.363L26.223,161.363C18.414,161.363 12.062,155.008 12.062,147.199L12.062,133.039L225.191,133.039C230.008,133.266 234.484,133.387 238.84,133.41C233.652,139.602 229.223,148.609 228.645,161.484C226.891,161.438 225.684,161.391 225.141,161.367C225.051,161.363 224.965,161.363 224.879,161.363L79.465,161.363C76.137,161.363 73.434,164.062 73.434,167.395C73.434,170.727 76.137,173.422 79.465,173.422L224.754,173.422C226.227,173.484 229.664,173.605 234.629,173.641C234.637,173.641 234.641,173.645 234.648,173.645L235.211,173.645C235.547,173.648 235.887,173.648 236.238,173.652L237.496,173.652C248.336,173.652 265.074,173.207 283.254,171.09C329.238,165.73 361.172,152.336 378.172,131.289C382.574,125.84 384.59,119 383.852,112.035ZM264.652,119.562C264.668,119.211 264.68,118.863 264.695,118.52C264.719,118.02 264.742,117.527 264.77,117.035C264.781,116.746 264.801,116.465 264.816,116.18C264.848,115.641 264.879,115.102 264.918,114.57C264.934,114.355 264.949,114.141 264.965,113.926C265.008,113.328 265.055,112.734 265.105,112.148C265.117,112.02 265.129,111.887 265.141,111.758C265.199,111.082 265.266,110.414 265.332,109.754C265.336,109.719 265.34,109.684 265.344,109.652C266.043,103.043 267.188,97.293 268.77,92.457C270.973,85.719 273.5,82.473 274.984,81.031L336.957,98.809C336.867,98.914 336.777,99.016 336.688,99.117C336.543,99.277 336.398,99.434 336.246,99.594C336.07,99.777 335.887,99.957 335.699,100.141C335.539,100.297 335.379,100.449 335.211,100.605C335.016,100.785 334.805,100.965 334.598,101.148C334.422,101.297 334.25,101.449 334.066,101.598C333.844,101.781 333.609,101.961 333.371,102.145C333.188,102.285 333.008,102.43 332.812,102.57C332.559,102.762 332.289,102.945 332.02,103.133C331.828,103.266 331.648,103.398 331.453,103.527C331.137,103.742 330.801,103.949 330.469,104.16C330.309,104.262 330.152,104.367 329.988,104.465C329.484,104.773 328.969,105.078 328.434,105.379C328.262,105.473 328.078,105.566 327.906,105.664C327.527,105.867 327.152,106.074 326.762,106.277C326.523,106.398 326.277,106.52 326.035,106.641C325.688,106.812 325.344,106.984 324.988,107.156C324.719,107.281 324.441,107.41 324.168,107.535C323.82,107.695 323.473,107.855 323.117,108.012C322.828,108.141 322.527,108.27 322.23,108.395C321.875,108.547 321.516,108.699 321.148,108.852C320.84,108.977 320.523,109.102 320.211,109.227C319.84,109.375 319.469,109.523 319.086,109.668C318.762,109.789 318.43,109.914 318.098,110.035C317.715,110.18 317.324,110.32 316.934,110.461C316.594,110.582 316.25,110.703 315.902,110.82C315.5,110.957 315.094,111.098 314.684,111.234C314.332,111.348 313.977,111.465 313.621,111.582C313.199,111.715 312.773,111.848 312.348,111.98C311.984,112.094 311.621,112.207 311.25,112.316C310.809,112.449 310.359,112.578 309.91,112.711C309.543,112.816 309.176,112.922 308.801,113.027C308.332,113.16 307.855,113.289 307.379,113.418C307.008,113.516 306.641,113.617 306.266,113.715C305.766,113.848 305.254,113.973 304.742,114.102C304.375,114.195 304.016,114.289 303.645,114.379C303.082,114.516 302.504,114.648 301.93,114.781C301.602,114.859 301.281,114.938 300.953,115.012C300.047,115.215 299.133,115.418 298.203,115.613C298.047,115.645 297.891,115.676 297.734,115.711C296.949,115.875 296.156,116.035 295.352,116.195C295,116.262 294.637,116.328 294.281,116.398C293.668,116.516 293.055,116.633 292.43,116.746C292.02,116.82 291.605,116.891 291.195,116.965C290.609,117.066 290.027,117.172 289.434,117.27C288.992,117.344 288.543,117.418 288.098,117.488C287.527,117.582 286.953,117.676 286.375,117.766C285.91,117.836 285.441,117.906 284.969,117.977C284.398,118.062 283.824,118.148 283.246,118.23C282.762,118.301 282.273,118.367 281.785,118.434C281.211,118.512 280.633,118.59 280.055,118.668C279.555,118.73 279.051,118.797 278.547,118.859C277.965,118.934 277.379,119.004 276.789,119.07C276.281,119.133 275.77,119.191 275.254,119.25C274.66,119.316 274.062,119.383 273.465,119.445C272.945,119.504 272.422,119.559 271.898,119.613C271.293,119.672 270.688,119.73 270.082,119.789C269.551,119.84 269.023,119.895 268.488,119.941C267.871,119.996 267.25,120.051 266.625,120.102C266.09,120.148 265.562,120.195 265.023,120.238C264.895,120.246 264.762,120.258 264.633,120.266C264.641,120.031 264.648,119.797 264.652,119.562ZM12.062,120.977L12.062,74.406C25.039,81.707 48.859,98.008 52.727,120.977L12.062,120.977ZM50.84,90.27C37.891,74.547 19.801,64.543 12.074,60.734C12.297,44.305 16.434,42.105 16.914,41.906C19.887,40.684 26.695,45.18 30.32,48.789C45.207,65.082 62.57,70.961 81.926,66.262C97.332,62.523 110.516,52.727 118.391,46.871C119.445,46.086 120.418,45.363 121.293,44.727C123.789,42.926 126.617,41.996 129.492,41.621C129.511,41.621 129.535,41.621 129.554,41.617C135.691,40.844 141.973,42.574 145.656,43.902C145.727,43.926 145.797,43.953 145.863,43.977C145.98,44.02 146.094,44.062 146.203,44.102C146.293,44.137 146.379,44.168 146.465,44.203C146.555,44.238 146.648,44.273 146.734,44.305C146.895,44.367 147.047,44.426 147.188,44.484C147.254,44.508 147.312,44.535 147.371,44.559C147.461,44.598 147.551,44.633 147.633,44.668C147.695,44.695 147.758,44.719 147.82,44.746C147.887,44.773 147.953,44.805 148.02,44.828C148.074,44.855 148.129,44.879 148.18,44.898C148.227,44.918 148.262,44.934 148.305,44.953C148.688,45.121 148.902,45.23 148.914,45.234C148.918,45.234 148.922,45.234 148.926,45.238C148.988,45.27 149.051,45.297 149.113,45.328L195.715,66.547C198.746,67.926 202.32,66.59 203.703,63.559C205.082,60.527 203.746,56.949 200.711,55.57L154.191,34.387C154.184,34.383 154.172,34.379 154.164,34.375C154.125,34.355 154.078,34.332 154.027,34.309C153.965,34.277 153.891,34.246 153.812,34.207C153.789,34.199 153.773,34.191 153.754,34.18C152.328,33.52 148.371,31.816 143.152,30.621C143.07,30.602 142.988,30.586 142.906,30.566C142.539,30.484 142.168,30.406 141.789,30.328C141.609,30.293 141.43,30.258 141.25,30.223C141.051,30.184 140.855,30.148 140.656,30.113C140.379,30.062 140.102,30.016 139.824,29.973C139.645,29.941 139.465,29.914 139.285,29.887C138.957,29.836 138.629,29.789 138.293,29.746C138.168,29.73 138.043,29.715 137.918,29.699C137.492,29.648 137.066,29.602 136.633,29.562C136.566,29.555 136.496,29.551 136.43,29.543C135.996,29.504 135.555,29.473 135.109,29.445C135.07,29.445 135.031,29.441 134.992,29.438C134.938,29.434 134.887,29.43 134.836,29.43C135.227,22.844 136.859,15.402 140.242,13.141C142.188,11.84 145.316,12.227 149.539,14.293C152.66,15.82 156.824,17.945 161.723,20.496L160.863,21.926C159.148,24.781 160.074,28.488 162.93,30.199C163.902,30.781 164.973,31.059 166.027,31.059C168.078,31.059 170.074,30.016 171.203,28.133L172.41,26.121C174.914,27.445 177.516,28.832 180.199,30.266L179.273,31.812C177.559,34.668 178.484,38.371 181.34,40.086C182.312,40.668 183.383,40.945 184.438,40.945C186.484,40.945 188.484,39.898 189.613,38.016L190.84,35.973C193.395,37.348 195.988,38.746 198.602,40.16L197.68,41.695C195.965,44.551 196.891,48.254 199.746,49.969C200.719,50.551 201.789,50.828 202.844,50.828C204.891,50.828 206.891,49.785 208.02,47.898L209.215,45.91C211.809,47.316 214.398,48.723 216.965,50.117L216.086,51.578C214.371,54.438 215.297,58.141 218.152,59.852C219.125,60.438 220.195,60.711 221.25,60.711C223.301,60.711 225.297,59.668 226.43,57.781L227.562,55.895C230.199,57.332 232.785,58.746 235.301,60.121L234.496,61.465C232.781,64.32 233.707,68.023 236.562,69.734C237.535,70.32 238.602,70.598 239.66,70.598C241.707,70.598 243.707,69.551 244.836,67.668L245.887,65.918C253.082,69.863 259.226,73.242 263.637,75.668C262.324,77.445 260.984,79.664 259.711,82.43L218.961,63.875C215.93,62.496 212.355,63.832 210.977,66.863C209.594,69.895 210.934,73.473 213.965,74.852L236.273,85.008C236.277,85.012 236.277,85.012 236.281,85.012L255.809,93.902C255.328,95.852 254.883,97.945 254.488,100.203C237.07,100.258 218.863,93.82 199.652,87.023C168.527,76.012 136.34,64.625 105.613,81.715C70.828,101.066 53.719,92.102 50.84,90.27ZM226.613,121.008C226.309,120.996 226.004,120.992 225.699,120.988C225.625,120.984 225.551,120.977 225.477,120.973C225.324,120.969 225.168,120.973 225.02,120.977L64.921,120.977C64.238,115.543 62.703,110.449 60.574,105.699C71.902,106.965 88.727,104.918 111.477,92.262C137.445,77.816 165.707,87.812 195.629,98.398C214.48,105.066 233.918,111.926 252.996,112.238C252.875,113.801 252.773,115.422 252.688,117.094C252.684,117.168 252.684,117.242 252.68,117.32C252.621,118.477 252.578,119.664 252.543,120.879C252.539,120.938 252.539,120.992 252.535,121.055C251.84,121.086 251.152,121.113 250.465,121.141C242.34,121.418 234.289,121.379 226.613,121.008ZM368.789,123.707C354.773,141.059 328.191,152.613 289.711,158.094C287.145,158.457 284.527,158.797 281.855,159.109C280.805,159.23 279.758,159.348 278.715,159.457C278.379,159.496 278.043,159.527 277.707,159.562C277.004,159.637 276.305,159.707 275.605,159.773C275.215,159.812 274.828,159.848 274.438,159.887C273.797,159.945 273.16,160.004 272.531,160.062C272.125,160.098 271.723,160.133 271.32,160.168C270.711,160.219 270.102,160.27 269.496,160.32C269.094,160.352 268.695,160.383 268.297,160.414C267.695,160.457 267.094,160.504 266.5,160.547C266.109,160.574 265.719,160.602 265.336,160.629C264.738,160.672 264.145,160.711 263.555,160.75C263.184,160.773 262.809,160.797 262.441,160.82C261.828,160.859 261.219,160.895 260.617,160.93C260.285,160.945 259.953,160.965 259.625,160.984C258.965,161.02 258.312,161.055 257.664,161.086C257.402,161.098 257.137,161.113 256.875,161.125C256.015,161.168 255.168,161.203 254.332,161.238C254.293,161.242 254.25,161.242 254.207,161.246C253.312,161.281 252.434,161.316 251.566,161.344C251.391,161.352 251.223,161.355 251.047,161.363C250.379,161.387 249.723,161.406 249.074,161.426C248.793,161.434 248.516,161.438 248.238,161.445C247.707,161.461 247.176,161.477 246.656,161.488C246.355,161.492 246.062,161.5 245.766,161.504C245.289,161.516 244.816,161.523 244.352,161.531C244.039,161.539 243.734,161.543 243.43,161.547C242.996,161.555 242.57,161.559 242.148,161.562C241.844,161.566 241.539,161.57 241.242,161.574C241.062,161.574 240.895,161.574 240.719,161.578C241.949,140.43 256.555,133.871 259.656,132.711C259.703,132.707 259.746,132.703 259.793,132.703C259.883,132.695 259.98,132.691 260.074,132.684C260.32,132.668 260.562,132.652 260.816,132.637C260.93,132.629 261.051,132.621 261.168,132.613C261.406,132.598 261.648,132.578 261.89,132.562C262.015,132.555 262.14,132.547 262.266,132.535C262.508,132.52 262.75,132.504 263,132.484C263.133,132.477 263.27,132.465 263.406,132.453C263.652,132.438 263.898,132.418 264.152,132.398C264.285,132.391 264.414,132.379 264.547,132.367C264.816,132.348 265.086,132.328 265.359,132.305C265.473,132.293 265.594,132.285 265.711,132.277C266,132.254 266.289,132.23 266.582,132.207C266.703,132.195 266.824,132.184 266.945,132.176C267.238,132.148 267.535,132.125 267.836,132.098C267.965,132.086 268.098,132.074 268.23,132.062C268.523,132.039 268.816,132.012 269.113,131.984C269.258,131.973 269.406,131.957 269.551,131.945C269.84,131.918 270.133,131.891 270.426,131.863C270.578,131.848 270.73,131.832 270.883,131.816C271.18,131.789 271.473,131.762 271.773,131.73C271.926,131.715 272.078,131.699 272.23,131.684C272.539,131.652 272.844,131.621 273.156,131.59C273.305,131.578 273.453,131.559 273.602,131.543C273.914,131.512 274.23,131.48 274.547,131.445C274.703,131.426 274.863,131.41 275.023,131.391C275.34,131.355 275.656,131.32 275.977,131.285C276.129,131.27 276.285,131.25 276.441,131.234C276.766,131.195 277.094,131.16 277.426,131.121C277.582,131.102 277.738,131.082 277.898,131.062C278.227,131.023 278.555,130.984 278.883,130.945C279.047,130.922 279.211,130.902 279.375,130.883C279.707,130.844 280.043,130.801 280.379,130.758C280.543,130.738 280.707,130.715 280.871,130.695C281.203,130.652 281.539,130.605 281.875,130.562C282.047,130.539 282.219,130.516 282.391,130.492C282.727,130.449 283.059,130.402 283.395,130.359C283.57,130.332 283.742,130.309 283.918,130.285C284.258,130.238 284.602,130.191 284.941,130.141C285.113,130.117 285.285,130.094 285.453,130.066C285.801,130.016 286.152,129.965 286.5,129.914C286.672,129.887 286.84,129.859 287.012,129.836C287.359,129.781 287.707,129.73 288.055,129.676C288.234,129.648 288.414,129.621 288.594,129.59C288.941,129.535 289.289,129.48 289.641,129.426C289.816,129.398 289.992,129.367 290.168,129.34C290.52,129.281 290.871,129.223 291.223,129.164C291.402,129.133 291.582,129.102 291.766,129.074C292.113,129.012 292.465,128.953 292.812,128.895C293,128.859 293.184,128.828 293.371,128.793C293.719,128.73 294.07,128.672 294.422,128.605C294.602,128.574 294.785,128.539 294.969,128.508C295.32,128.441 295.672,128.375 296.027,128.309C296.211,128.273 296.398,128.238 296.582,128.203C296.938,128.137 297.289,128.07 297.645,128C297.828,127.965 298.008,127.926 298.191,127.891C298.547,127.82 298.902,127.75 299.258,127.676C299.445,127.641 299.629,127.602 299.816,127.562C300.168,127.488 300.523,127.414 300.875,127.34C301.059,127.301 301.246,127.262 301.43,127.223C301.785,127.145 302.141,127.066 302.496,126.988C302.68,126.949 302.859,126.91 303.043,126.871C303.402,126.789 303.766,126.707 304.125,126.625C304.301,126.582 304.477,126.543 304.652,126.504C305.016,126.418 305.375,126.332 305.738,126.246C305.914,126.203 306.09,126.164 306.266,126.121C306.625,126.035 306.984,125.945 307.344,125.855C307.523,125.812 307.699,125.766 307.875,125.723C308.23,125.633 308.586,125.543 308.945,125.449C309.121,125.406 309.301,125.359 309.477,125.312C309.832,125.219 310.188,125.125 310.543,125.031C310.719,124.984 310.895,124.938 311.07,124.887C311.426,124.789 311.777,124.695 312.129,124.594C312.305,124.547 312.477,124.496 312.652,124.449C313.008,124.348 313.359,124.246 313.715,124.141C313.883,124.094 314.055,124.043 314.227,123.992C314.574,123.891 314.926,123.785 315.273,123.68C315.445,123.625 315.617,123.574 315.793,123.52C316.137,123.414 316.484,123.305 316.828,123.195C317,123.141 317.168,123.09 317.34,123.035C317.684,122.922 318.027,122.809 318.371,122.695C318.539,122.641 318.707,122.586 318.871,122.531C319.219,122.418 319.559,122.297 319.902,122.18C320.062,122.125 320.227,122.07 320.387,122.012C320.73,121.895 321.07,121.77 321.41,121.648C321.57,121.59 321.73,121.535 321.887,121.477C322.227,121.355 322.562,121.227 322.898,121.102C323.055,121.043 323.211,120.984 323.367,120.922C323.703,120.797 324.035,120.664 324.363,120.535C324.52,120.477 324.676,120.414 324.828,120.352C325.16,120.223 325.488,120.086 325.812,119.953C325.965,119.891 326.113,119.828 326.266,119.766C326.594,119.629 326.918,119.488 327.242,119.348C327.387,119.285 327.535,119.223 327.68,119.16C328,119.02 328.32,118.875 328.641,118.73C328.781,118.664 328.926,118.602 329.07,118.535C329.387,118.391 329.703,118.242 330.016,118.094C330.156,118.027 330.293,117.961 330.43,117.895C330.746,117.742 331.059,117.59 331.367,117.434C331.5,117.367 331.633,117.305 331.766,117.234C332.074,117.078 332.379,116.922 332.684,116.762C332.812,116.691 332.945,116.625 333.074,116.559C333.375,116.395 333.672,116.23 333.969,116.066C334.098,115.996 334.227,115.93 334.352,115.859C334.648,115.691 334.941,115.523 335.23,115.352C335.352,115.281 335.477,115.215 335.594,115.141C335.887,114.969 336.176,114.789 336.465,114.613C336.578,114.547 336.691,114.477 336.801,114.406C337.094,114.227 337.375,114.043 337.66,113.859C337.766,113.789 337.875,113.723 337.98,113.652C338.266,113.465 338.543,113.273 338.82,113.082C338.918,113.012 339.02,112.945 339.117,112.879C339.398,112.68 339.676,112.48 339.949,112.277C340.039,112.211 340.129,112.148 340.219,112.082C340.5,111.871 340.77,111.66 341.043,111.449C341.121,111.387 341.203,111.328 341.281,111.266C341.559,111.047 341.824,110.824 342.09,110.605C342.16,110.543 342.234,110.484 342.305,110.426C342.578,110.195 342.844,109.961 343.109,109.723C343.168,109.672 343.227,109.621 343.285,109.566C343.566,109.312 343.836,109.055 344.105,108.797C344.145,108.758 344.184,108.723 344.219,108.688C344.422,108.488 344.617,108.289 344.812,108.086C344.844,108.055 344.879,108.023 344.91,107.992C344.969,107.93 345.031,107.871 345.086,107.812C345.098,107.805 345.102,107.797 345.113,107.785C345.32,107.57 345.516,107.348 345.715,107.129C345.773,107.066 345.832,107.004 345.887,106.941C346.188,106.602 346.477,106.262 346.758,105.914C346.781,105.883 346.812,105.859 346.836,105.828C347.148,105.445 347.48,105.086 347.828,104.742C347.914,104.652 348.012,104.574 348.102,104.488C348.18,104.418 348.258,104.352 348.336,104.281C348.57,104.074 348.801,103.863 349.047,103.672C349.133,103.605 349.219,103.543 349.305,103.48C349.398,103.41 349.496,103.344 349.59,103.277C349.895,103.062 350.203,102.848 350.527,102.656C350.539,102.648 350.555,102.641 350.566,102.633C350.68,102.566 350.801,102.504 350.918,102.441C351.297,102.23 351.684,102.031 352.09,101.855C352.316,101.758 352.547,101.66 352.777,101.574C352.953,101.508 353.129,101.438 353.309,101.379C353.602,101.281 353.902,101.203 354.203,101.125C354.391,101.078 354.57,101.023 354.758,100.98C355.094,100.906 355.438,100.855 355.781,100.809C355.934,100.789 356.086,100.754 356.238,100.738C356.738,100.684 357.242,100.656 357.754,100.652C358.18,100.652 358.602,100.668 359.027,100.703C359.145,100.715 359.262,100.734 359.379,100.75C359.699,100.785 360.023,100.828 360.34,100.883C360.469,100.906 360.594,100.941 360.723,100.965C361.027,101.031 361.336,101.102 361.637,101.188C361.758,101.223 361.879,101.262 362,101.301C362.301,101.395 362.602,101.5 362.898,101.613C363.016,101.66 363.129,101.703 363.246,101.754C363.543,101.879 363.832,102.012 364.121,102.16C364.23,102.215 364.34,102.266 364.449,102.324C364.742,102.48 365.027,102.652 365.309,102.832C365.406,102.891 365.504,102.945 365.598,103.012C365.969,103.258 366.328,103.516 366.676,103.797C369.621,106.176 371.461,109.555 371.859,113.316C372.258,117.074 371.168,120.766 368.789,123.707Z" style="fill:white;fill-rule:nonzero;"/>
                </g>
            </g>
        </g>
    </g>
</svg>
