<?xml version="1.0" encoding="UTF-8" standalone="no"?>
<!DOCTYPE svg PUBLIC "-//W3C//DTD SVG 1.1//EN" "http://www.w3.org/Graphics/SVG/1.1/DTD/svg11.dtd">
<svg width="100%" height="100%" viewBox="0 0 1500 300" version="1.1" xmlns="http://www.w3.org/2000/svg" xmlns:xlink="http://www.w3.org/1999/xlink" xml:space="preserve" xmlns:serif="http://www.serif.com/" style="fill-rule:evenodd;clip-rule:evenodd;stroke-linecap:round;stroke-linejoin:round;stroke-miterlimit:1.5;">
    <g transform="matrix(0.901096,0,0,0.823912,131.221,26.094)">
        <path d="M1490.49,151.526C1490.49,73.453 1432.53,10.068 1361.14,10.068L136.618,10.068C65.233,10.068 7.277,73.453 7.277,151.526C7.277,229.599 65.233,292.984 136.618,292.984L1361.14,292.984C1432.53,292.984 1490.49,229.599 1490.49,151.526Z" style="fill:white;"/>
    </g>
    <g transform="matrix(1,0,0,1,15.8538,62.7045)">
        <text x="478.301px" y="156.96px" style="font-family:'Rajdhani-Regular', 'Rajdhani';font-size:216.667px;">MY TOPS</text>
    </g>
    <g transform="matrix(1.13764,0,0,1.23043,-39.8529,-37.9503)">
        <path d="M289.539,150.661C289.539,86.723 233.395,34.813 164.242,34.813C95.089,34.813 38.945,86.723 38.945,150.661L38.945,155.175C38.945,219.113 95.089,271.023 164.242,271.023C233.395,271.023 289.539,219.113 289.539,155.175L289.539,150.661Z" style="fill:rgb(139,207,177);stroke:white;stroke-width:8.79px;"/>
    </g>
    <g id="shirt" transform="matrix(0.581515,0,0,0.581515,145.448,149.539)">
        <g transform="matrix(1,0,0,1,-181,-192)">
            <g>
                <g>
                    <path d="M165.578,32.98L196.859,32.98C200.207,32.98 202.922,30.266 202.922,26.918C202.922,23.566 200.207,20.855 196.859,20.855L165.578,20.855C162.23,20.855 159.516,23.57 159.516,26.918C159.516,30.266 162.23,32.98 165.578,32.98Z" style="fill:white;fill-rule:nonzero;"/>
                    <path d="M361.535,144.52L340.672,58.566C340.465,57.715 335.391,37.633 315.441,29.156C301,23.02 255.332,5.68 243.898,1.352C242.855,0.508 241.527,0 240.082,0L122.785,0C122.594,0 122.398,0.012 122.207,0.027C122.121,0.039 122.039,0.051 121.957,0.062C121.852,0.078 121.746,0.09 121.641,0.113C121.543,0.129 121.445,0.156 121.348,0.18C121.262,0.199 121.176,0.219 121.09,0.246C120.988,0.273 120.891,0.309 120.793,0.34C120.742,0.359 120.691,0.371 120.641,0.391C118.285,1.281 62.762,22.27 46.559,29.156C27.379,37.309 21.953,56.176 21.379,58.371L21.379,58.375C21.367,58.414 21.359,58.449 21.352,58.477C21.34,58.516 21.332,58.547 21.328,58.562L6.504,119.648L0.465,144.52C-0.246,147.457 1.309,150.469 4.121,151.586L63.723,175.266L63.723,377.938C63.723,381.285 66.438,384 69.785,384L292.215,384C295.562,384 298.277,381.285 298.277,377.938L298.277,237.848C298.277,234.496 295.562,231.781 292.215,231.781C288.863,231.781 286.152,234.496 286.152,237.848L286.152,347.223L137.141,347.223C133.789,347.223 131.078,349.938 131.078,353.289C131.078,356.637 133.789,359.352 137.141,359.352L286.152,359.352L286.152,371.875L75.848,371.875L75.848,359.352L116.93,359.352C120.277,359.352 122.992,356.637 122.992,353.289C122.992,349.938 120.277,347.223 116.93,347.223L75.848,347.223L75.848,98.164C75.848,97.059 75.547,95.973 74.977,95.027L44.398,44.457C46.371,42.871 48.66,41.441 51.305,40.316C63.719,35.039 100.941,20.84 117.195,14.668C121.094,50.5 148.926,79.32 181.438,79.32C213.852,79.32 241.617,50.672 245.644,14.984C262.305,21.312 298.492,35.129 310.699,40.316C313.344,41.441 315.633,42.871 317.605,44.457L287.027,95.027C286.457,95.973 286.156,97.059 286.156,98.164L286.156,217.637C286.156,220.984 288.867,223.699 292.219,223.699C295.566,223.699 298.281,220.984 298.281,217.637L298.281,175.262L357.883,151.586C360.688,150.469 362.246,147.457 361.535,144.52ZM63.723,162.215L13.492,142.262L16.609,129.422L63.723,149.18L63.723,162.215ZM63.723,99.855L63.723,136.027L19.508,117.484L33.109,61.453C33.125,61.383 33.953,58.258 36.18,54.301L63.723,99.855ZM181.434,67.191C157.469,67.191 131.906,45.316 129.105,12.125L233.77,12.125C230.961,45.32 205.398,67.191 181.434,67.191ZM298.277,99.855L325.824,54.301C327.281,56.891 328.141,59.125 328.562,60.367C328.562,60.371 328.562,60.375 328.566,60.379C328.605,60.496 328.641,60.605 328.672,60.703C328.68,60.723 328.684,60.742 328.691,60.758C328.715,60.84 328.738,60.91 328.758,60.973C328.766,61 328.773,61.027 328.781,61.051C328.797,61.102 328.809,61.152 328.82,61.191C328.828,61.211 328.836,61.234 328.84,61.254C328.848,61.285 328.855,61.312 328.863,61.336C328.867,61.352 328.871,61.371 328.875,61.383C328.883,61.402 328.887,61.422 328.887,61.426L342.492,117.484L298.277,136.031L298.277,99.855ZM298.277,162.215L298.277,149.18L345.391,129.422L348.508,142.262L298.277,162.215Z" style="fill:white;fill-rule:nonzero;"/>
                </g>
            </g>
        </g>
    </g>
</svg>
