<?xml version="1.0" encoding="UTF-8" standalone="no"?>
<!DOCTYPE svg PUBLIC "-//W3C//DTD SVG 1.1//EN" "http://www.w3.org/Graphics/SVG/1.1/DTD/svg11.dtd">
<svg width="100%" height="100%" viewBox="0 0 1500 300" version="1.1" xmlns="http://www.w3.org/2000/svg" xmlns:xlink="http://www.w3.org/1999/xlink" xml:space="preserve" xmlns:serif="http://www.serif.com/" style="fill-rule:evenodd;clip-rule:evenodd;stroke-linecap:round;stroke-linejoin:round;stroke-miterlimit:1.5;">
    <g id="Layer1">
    </g>
    <g transform="matrix(0.901096,0,0,0.823912,141.221,26.094)">
        <path d="M1490.49,18.21C1490.49,13.716 1487.15,10.068 1483.04,10.068L14.722,10.068C10.613,10.068 7.277,13.716 7.277,18.21L7.277,284.842C7.277,289.336 10.613,292.984 14.722,292.984L1483.04,292.984C1487.15,292.984 1490.49,289.336 1490.49,284.842L1490.49,18.21Z" style="fill:white;"/>
    </g>
    <g transform="matrix(1,0,0,1,-65.4982,61.912)">
        <text x="478.301px" y="156.96px" style="font-family:'Rajdhani-Regular', 'Rajdhani';font-size:216.667px;">WORK FITS</text>
    </g>
    <g transform="matrix(1.13764,0,0,1.23043,-39.8529,-37.9503)">
        <path d="M289.539,150.661C289.539,86.723 233.395,34.813 164.242,34.813C95.089,34.813 38.945,86.723 38.945,150.661L38.945,155.175C38.945,219.113 95.089,271.023 164.242,271.023C233.395,271.023 289.539,219.113 289.539,155.175L289.539,150.661Z" style="fill:rgb(139,207,177);stroke:white;stroke-width:8.79px;"/>
    </g>
    <g id="tie" transform="matrix(0.600062,0,0,0.600062,145.041,159.104)">
        <g transform="matrix(1,0,0,1,-114,-192)">
            <g>
                <clipPath id="_clip1">
                    <rect x="0" y="0" width="228" height="384"/>
                </clipPath>
                <g clip-path="url(#_clip1)">
                    <path d="M40.152,153.188C40.855,154.902 42.277,156.219 44.043,156.789C45.805,157.363 47.73,157.133 49.309,156.16L80.656,136.797L83.5,147.359L53.715,326.191C53.367,328.281 54.09,330.41 55.641,331.852L109.898,382.309C112.324,384.566 116.078,384.566 118.504,382.309L172.762,331.852C174.293,330.426 175.02,328.34 174.703,326.27L147.336,147.281L149.492,137.879L179.094,156.16C180.668,157.133 182.594,157.363 184.359,156.789C186.121,156.219 187.543,154.902 188.246,153.188L227.375,58.105C227.691,57.344 227.855,56.527 227.859,55.703L227.859,6.258C227.855,5.977 227.832,5.699 227.789,5.422C227.781,5.355 227.766,5.289 227.754,5.223C227.715,4.965 227.656,4.703 227.578,4.453C227.578,4.441 227.574,4.43 227.57,4.422C227.488,4.156 227.387,3.895 227.27,3.645C227.25,3.594 227.223,3.543 227.199,3.492C227.09,3.27 226.969,3.051 226.832,2.84C226.816,2.816 226.805,2.789 226.789,2.766C226.641,2.547 226.477,2.336 226.301,2.133C226.258,2.086 226.211,2.035 226.164,1.984C226.004,1.812 225.836,1.645 225.66,1.492C225.629,1.469 225.602,1.441 225.57,1.41C225.363,1.242 225.145,1.082 224.914,0.941C224.863,0.906 224.809,0.875 224.758,0.844C224.27,0.555 223.75,0.332 223.207,0.184C223.148,0.168 223.09,0.152 223.031,0.141C222.789,0.078 222.539,0.031 222.289,0C222.262,0 222.23,0.102 222.203,0.098C221.98,0.078 221.754,0.18 221.527,0.18L6.871,0.18C6.645,0.141 6.418,0.113 6.191,0.098C6.172,0.098 6.148,0.051 6.129,0.051C5.867,0.074 5.613,0.113 5.355,0.168C5.305,0.18 5.254,0.18 5.199,0.195C4.652,0.344 4.129,0.562 3.645,0.852C3.594,0.883 3.543,0.91 3.484,0.941C3.258,1.086 3.039,1.242 2.828,1.414C2.801,1.441 2.773,1.465 2.746,1.496C2.566,1.648 2.398,1.812 2.238,1.988C2.191,2.039 2.145,2.086 2.102,2.137C1.926,2.336 1.762,2.551 1.609,2.77C1.598,2.793 1.582,2.816 1.566,2.844C1.434,3.051 1.312,3.27 1.203,3.492C1.18,3.547 1.152,3.594 1.129,3.645C1.012,3.898 0.914,4.16 0.832,4.426C0.832,4.434 0.824,4.441 0.82,4.457C0.746,4.707 0.691,4.969 0.648,5.227C0.637,5.289 0.621,5.355 0.613,5.422C0.57,5.699 0.547,5.977 0.543,6.258L0.543,55.703C0.543,56.527 0.707,57.34 1.023,58.102L40.152,153.188ZM48.992,141.508L13.168,54.453L13.168,21.008L103.914,107.582L48.992,141.508ZM114.199,99.652L74.457,61.738L153.941,61.738L114.199,99.652ZM167.18,49.109L61.223,49.109L22.637,12.801L205.766,12.801L167.18,49.109ZM157.367,296.445L78.914,251.758L84.762,216.633L151.445,257.738L157.367,296.445ZM87.004,203.18L91.719,174.879L144.035,209.246L148.945,241.359L87.004,203.18ZM135.488,153.297L141.465,192.418L93.988,161.211L95.305,153.297L135.488,153.297ZM114.199,369.059L66.727,324.914L69.652,307.344L140.027,345.043L114.199,369.059ZM149.801,335.953L71.848,294.191L76.703,265.031L159.797,312.363L161.711,324.879L149.801,335.953ZM135.883,140.668L94.789,140.668L91.863,129.848L114.199,116.062L138.145,130.828L135.883,140.668ZM179.406,141.508L124.484,107.582L215.23,21.008L215.23,54.453L179.406,141.508Z" style="fill:white;fill-rule:nonzero;"/>
                </g>
            </g>
        </g>
    </g>
</svg>
